# xmcd
#
# Track frame offsets:
#	150
#	17047
#	31775
#	52645
#	71292
#	90545
#	107282
#	124492
#	142222
#	161317
#	180192
#	197492
#	214365
#	233292
#	247700
#
# Disc length: 3544 seconds
#
# Revision: 3
# Processed by: cddbd v1.5.2PL0 Copyright (c) Steve Scherf et al.
# Submitted via: EZCDAudioConverter 7.1.8.1
#
DISCID=ad0dd60f
DTITLE=Various Artist - ヒットスタジオ・デラックス (Japan D36A-0105) (EZ-WAV)
DYEAR=1900
DGENRE=Miscellaneous
TTITLE0=チェッカーズ - 俺たちのロカビリーナイト
TTITLE1=Toshi and Naoko - 夏ざかりほの字組
TTITLE2=THE ALFEE - シンデレラは眠れない
TTITLE3=TOM-CAT - サマータイムグラフティ
TTITLE4=斉藤由貴 - 白い炎
TTITLE5=岡田有希子 - 哀しい予感
TTITLE6=井森美幸 - 99粒の涙
TTITLE7=時代錯誤 - 幸運序曲～大福星のテーマ～
TTITLE8=THE ALFEE - 星空のディスタンス
TTITLE9=TOM★CAT - ふられ気分でRock'n Roll
TTITLE10=Toshi and Naoko - バカンス・ゲーム
TTITLE11=おニャン子クラブ - セーラー服を脱がさないで
TTITLE12=堀ちえみ - WA・ショイ!
TTITLE13=岩崎良美 - タッチ
TTITLE14=チェッカーズ - 星屑のステージ
EXTD=
EXTT0=
EXTT1=
EXTT2=
EXTT3=
EXTT4=
EXTT5=
EXTT6=
EXTT7=
EXTT8=
EXTT9=
EXTT10=
EXTT11=
EXTT12=
EXTT13=
EXTT14=
PLAYORDER=
